<?xml version="1.0" encoding="utf-8"?>
<!-- Generator: Adobe Illustrator 24.0.0, SVG Export Plug-In . SVG Version: 6.00 Build 0)  -->
<svg version="1.1" id="레이어_1" xmlns="http://www.w3.org/2000/svg" xmlns:xlink="http://www.w3.org/1999/xlink" x="0px"
	 y="0px" viewBox="0 0 84 94" style="enable-background:new 0 0 84 94;" xml:space="preserve">
<style type="text/css">
	.st0{fill:#8BC500;}
	.st1{fill:#666861;}
	.st2{fill:#FFFFFF;}
</style>
<g>
	<path class="st0" d="M83.6,68.3V25.7c0-1.6-0.8-3-2.2-3.8L44.1,0.6c-1.3-0.8-3-0.8-4.3,0L2.6,21.9c-1.4,0.8-2.2,2.2-2.2,3.8v42.6
		c0,1.6,0.8,3,2.2,3.8l37.2,21.3c1.3,0.8,3,0.8,4.3,0l37.2-21.3C82.7,71.3,83.6,69.9,83.6,68.3z"/>
	<path class="st1" d="M12.2,40.9l-6.8,4c-0.1,0.1-0.2,0.2-0.2,0.4v10.3c0,0.3,0.4,0.5,0.7,0.4l4-2.4c0.1-0.1,0.2-0.2,0.2-0.4v-5.1
		c0-0.2,0.1-0.3,0.2-0.4l2-1.2c0.1-0.1,0.3-0.1,0.4,0l2,1.2c0.1,0.1,0.2,0.2,0.2,0.4v5.1c0,0.2,0.1,0.3,0.2,0.4l4,2.4
		c0.3,0.2,0.7,0,0.7-0.4V45.3c0-0.2-0.1-0.3-0.2-0.4l-6.8-4C12.5,40.9,12.4,40.9,12.2,40.9z"/>
	<path class="st1" d="M54.1,32v9.9c0,0.2-0.3,0.4-0.5,0.3l-1.7-1c-0.1-0.1-0.3-0.1-0.4,0l-6.9,4c-0.1,0.1-0.2,0.2-0.2,0.4v8.1
		c0,0.2,0.1,0.3,0.2,0.4l6.9,4c0.1,0.1,0.3,0.1,0.4,0l6.9-4c0.1-0.1,0.2-0.2,0.2-0.4v-7.5v-0.8V34.3c0-0.2-0.1-0.3-0.2-0.4l-4-2.3
		C54.5,31.5,54.1,31.7,54.1,32z M54.1,51l-2.3,1.4L49.4,51v-2.7l2.3-1.4l2.3,1.4V51z"/>
	<path class="st2" d="M39.1,45l-6.6-3.8c-0.2-0.1-0.5-0.1-0.8,0L25.1,45c-0.2,0.1-0.4,0.4-0.4,0.7v7.6c0,0.3,0.1,0.5,0.4,0.7
		l6.6,3.8c0.2,0.1,0.5,0.1,0.8,0l6.6-3.8c0.2-0.1,0.4-0.4,0.4-0.7v-7.6C39.5,45.3,39.3,45.1,39.1,45z M34.6,50.8l-2.5,1.4l-2.5-1.4
		V48l2.5-1.4l2.5,1.4V50.8z"/>
	<path class="st1" d="M64.1,53.8l6.9,4c0.1,0.1,0.3,0.1,0.4,0l4.1-2.3c0.3-0.2,0.3-0.5,0-0.7L69,51c-0.1-0.1-0.2-0.2-0.2-0.4v-2.3
		c0-0.2,0.1-0.3,0.2-0.4l2-1.2c0.1-0.1,0.3-0.1,0.4,0l2,1.2c0.1,0.1,0.2,0.2,0.2,0.4v1.7c0,0.3,0.4,0.5,0.6,0.3l3.9-2.5
		c0.1-0.1,0.2-0.2,0.2-0.4v-2c0-0.2-0.1-0.3-0.2-0.4l-6.8-4c-0.1-0.1-0.3-0.1-0.4,0l-6.9,4c-0.1,0.1-0.2,0.2-0.2,0.4l0,7.9
		C63.9,53.5,64,53.7,64.1,53.8z"/>
	<polygon class="st1" points="72.5,50.1 72.5,48.5 71.2,47.7 69.8,48.5 69.8,50.1 71.2,50.9 	"/>
</g>
</svg>
