<?xml version="1.0" encoding="utf-8"?>
<!-- Generator: Adobe Illustrator 24.0.0, SVG Export Plug-In . SVG Version: 6.00 Build 0)  -->
<svg version="1.1" id="레이어_1" xmlns="http://www.w3.org/2000/svg" xmlns:xlink="http://www.w3.org/1999/xlink" x="0px"
	 y="0px" viewBox="0 0 80 94" style="enable-background:new 0 0 80 94;" xml:space="preserve">
<style type="text/css">
	.st0{fill:#FFFFFF;}
	.st1{fill:#363636;}
	.st2{fill:#FFB300;}
	.st3{fill:#FFFFFF;stroke:#000000;stroke-width:0.25;stroke-miterlimit:10;}
	.st4{fill:#FFB300;stroke:#000000;stroke-width:0.5;stroke-linecap:round;stroke-miterlimit:10;}
</style>
<g>
	<polygon class="st0" points="35.4,23.4 28.7,23.4 27.3,37.7 18.1,48 13.6,67.2 21.8,84.1 58.3,84.1 68.1,62 62.5,43.7 51.9,28.7 
		49.9,18.2 	"/>
	<g>
		<g>
			<path class="st1" d="M52.8,89.5c-0.1,0-0.1,0-0.2-0.1c-2.3-1.8-8.6-2.8-13.6-3.1c-0.4,0-0.8,0-1.2,0c-4.3,0-6.6,1.6-7,1.9
				L20.7,73.2c1.2,0.9,6.1,4.6,8.2,6.3c1.4,1.2,4.6,2,8.3,2c2.6,0,5.2-0.4,7.4-1.1c5.6-1.8,8.4-7.1,9-8.2c0.1,2,0.8,15.7-0.6,17.2
				C53,89.5,52.9,89.5,52.8,89.5L52.8,89.5z"/>
			<path d="M53.5,72.4c0.1,1.2,0.2,4.4,0.3,7.7c0.1,6.8-0.4,8.8-0.8,9.2c-0.1,0.1-0.1,0.1-0.2,0.1s-0.1,0-0.2-0.1
				c-2.4-1.8-8.6-2.8-13.6-3.1c-0.4,0-0.8,0-1.2,0c-4.2,0-6.5,1.5-7,1.9L21,73.5c1.6,1.2,6,4.5,7.9,6.1c1.4,1.2,4.6,2,8.3,2
				c2.6,0,5.2-0.4,7.5-1.1c3.3-1.1,5.6-3.3,6.9-5C52.6,74.2,53.2,73,53.5,72.4 M53.6,72c0,0-2.7,6.3-9,8.4c-2.4,0.8-5,1.1-7.4,1.1
				c-3.6,0-6.8-0.8-8.2-2c-2.4-2-8.5-6.5-8.5-6.5l10.4,15.3c0,0,2.3-2,7-2c0.4,0,0.8,0,1.2,0c5.5,0.4,11.4,1.4,13.6,3.1
				c0.1,0.1,0.2,0.1,0.3,0.1C54.7,89.5,53.6,72,53.6,72L53.6,72z"/>
		</g>
		<g>
			<path class="st2" d="M58.3,93.8c-1.9,0-3.8-0.5-5.1-1.2c-2-1.2-2.7-2.9-1.5-9.1c0.6-3.3,1-12.3,1-12.4v0
				c-0.1-3.2-0.2-4.9,0.6-5.7c0.8-0.8,2.4-1,5.8-1c0.6,0,1.2,0,2,0h0c0.3,0,0.6,0,0.8,0c1,0,1.8,0,2.6,0c0.7,0,1.3,0,1.9,0
				c2.4,0,3.9,0.1,4.9,0.7c1,0.6,1.4,1.7,1.6,3.7c0.2,3,2.3,4.7,4.1,6.3c1.5,1.2,2.7,2.3,2.4,3.7c-0.4,2.1-2.5,3.3-4.4,4.4
				c-0.5,0.3-0.9,0.5-1.3,0.8c-3.2,2.2-9,6.5-11.8,8.9C61.2,93.4,59.9,93.8,58.3,93.8z"/>
			<g>
				<path d="M66.4,64.5c2.3,0,3.9,0.1,4.8,0.7c0.9,0.6,1.3,1.6,1.5,3.6c0.2,3.1,2.4,4.9,4.1,6.4c1.5,1.3,2.7,2.3,2.4,3.6
					c-0.4,2-2.5,3.2-4.3,4.2c-0.5,0.3-0.9,0.5-1.3,0.8c-3.2,2.2-9,6.5-11.8,8.9c-0.7,0.6-2,1-3.6,1c-1.8,0-3.7-0.5-5-1.2
					c-1.9-1.2-2.6-2.8-1.5-8.9c0.6-3.3,1-12,1-12.4v0v0c-0.1-3.1-0.2-4.8,0.6-5.6c0.7-0.8,2.3-0.9,5.6-0.9c0.6,0,1.3,0,2,0h0
					c0.3,0,0.6,0,0.8,0c1,0,1.8,0,2.6,0C65.2,64.5,65.9,64.5,66.4,64.5 M66.4,64.2c-1.3,0-2.8,0-4.5,0c-0.3,0-0.6,0-0.8,0
					c-0.7,0-1.4,0-2,0c-6.8,0-6.9,0.5-6.6,6.9c0,0-0.4,9-1,12.3c-1.2,6-0.5,8,1.6,9.3c1.3,0.8,3.3,1.3,5.2,1.3c1.5,0,2.9-0.3,3.8-1
					c2.8-2.4,8.5-6.7,11.8-8.8c2-1.3,5.2-2.6,5.8-5.3c0.7-3.3-6.1-4.6-6.5-10C72.8,64.6,71.2,64.2,66.4,64.2L66.4,64.2z"/>
			</g>
		</g>
		<g>
			<path class="st1" d="M25.1,78.2c-2.2,0-5-0.7-7.8-2.1c-2.7-1.3-4-5.1-4.5-8.1c-0.6-3.2-0.7-6.9-0.5-8.9c0.3-2.8,1.5-7.2,5.4-12.3
				c3.7-4.7,6.4-10.5,8.2-14.3c0.2-0.5,0.4-0.9,0.6-1.3c1.4-3,1.4-4.1,1.3-7.4c0-1,0-2.3,0-3.8c0-0.7,0-1.4,0-2.2
				c-0.1-4.1-0.3-9.8,3.9-14c2.3-2.3,5.5-3.6,8.9-3.6c3.6,0,7.2,1.5,9.5,4c4.2,4.4,3.6,12.8,3.4,15.9c0,0.2,0,0.4,0,0.6
				c-0.1,2.7,0.2,4.9,0.6,6.1c0.6,1.8,2.8,5.3,5.4,9.4c2.7,4.3,5.8,9.1,7.9,13.3c3.8,7.8,1.7,14.5,1.5,15.1l-1.4-0.1l0,0
				c0,0-1.7,3-2.8,4.4c-0.7,1-3.2,3-5.5,3c-0.6,0-1.1-0.1-1.6-0.4c-2.4-1.4-2.7-6.4-2.2-7.7c0.5-1.2,1.6-1.9,5.5-2.1
				c0.2,0,0.4,0,0.6,0c3.4,0,5,1.2,5,1.2l0.1,0.1l0-0.1c0,0,0.2-1-2.2-1.7c-1.2-0.4-4-0.4-4.5-0.4c0.2-0.6,1.2-4.7,0.9-6.8
				c0-0.1,0-0.2,0-0.3c-0.1-0.8-0.4-2.8-1.4-4.4c-1.5-2.4-4.3-4.5-4.4-4.6l-0.5-0.3l0.4,0.4c0,0,2.1,2.4,3.5,4.7
				c3.1,5.2,0.2,10.6-0.1,11l-1.1,0.1c0-0.5,0-3.5-0.5-6.4c-0.1-0.6-0.9-3.6-2.1-6.2c-1.2-2.4-2.9-4.6-3-4.8c0-0.1,0-0.8-0.4-2.1
				c-0.2-0.6-0.6-1.3-0.9-2.1c-0.5-1.1-1.1-2.4-1.7-4c-0.3-0.8-0.5-1.9-0.6-3.1c-0.3-2.3-0.7-5-2.2-6.4c-2.2-2.1-5.4-3.3-8.8-3.3
				c-1.5,0-3,0.2-4.4,0.7C30.8,23.5,30,28,29.3,32c-0.3,1.8-0.6,3.6-1,4.8c-0.7,2.2-1.4,3.8-2.3,5.2c-0.4,0.6-0.5,1.2-0.6,1.6
				c0,0.4-0.1,0.8-0.4,1.1c-1.6,1.9-2.1,3.2-2.8,4.8c-0.3,0.7-0.6,1.6-1.1,2.6c-2,4-1.8,8.5-1.8,9.5c-0.4-0.5-1.4-2.4-0.9-7.5
				c0.4-4.1,3.9-8.3,4-8.4l0.3-0.4l-0.4,0.3c0,0-3.3,2.4-4.6,7.8c-2,7.9,1.8,11.8,3.4,13.4c0.1,0.1,0.2,0.2,0.3,0.3
				c1.4,1.5,2.7,2.3,4.1,3.3c0.4,0.3,0.8,0.6,1.2,0.8c1.9,1.3,2.8,2.4,2.9,3.5c0.1,0.8-0.3,1.5-1,2.3C28,77.8,26.7,78.2,25.1,78.2z"
				/>
			<path d="M40.6,0.1c3.6,0,7.1,1.5,9.5,3.9c4.2,4.4,3.6,12.7,3.4,15.8c0,0.2,0,0.4,0,0.6c-0.1,2.7,0.2,5,0.6,6.1
				c0.6,1.8,2.8,5.3,5.4,9.4c2.7,4.3,5.8,9.1,7.9,13.3c2.1,4.2,2.4,8.1,2.3,10.6c-0.1,2.4-0.6,4-0.7,4.4l-1.3-0.1h-0.1l0,0.1
				c0,0-1.7,3-2.8,4.4c-0.7,1-3.2,3-5.5,3c-0.6,0-1.1-0.1-1.6-0.4c-2.4-1.4-2.7-6.4-2.2-7.6c0.5-1.1,1.6-1.9,5.4-2
				c0.2,0,0.4,0,0.6,0c3.3,0,4.9,1.2,5,1.2l0.1,0.1l0-0.2c0,0,0.2-1-2.3-1.8c-1.1-0.4-3.7-0.4-4.4-0.4c0.2-0.8,1.2-4.7,0.9-6.7
				c0-0.1,0-0.2,0-0.3c-0.1-0.8-0.4-2.8-1.4-4.4c-1.5-2.4-4.3-4.6-4.4-4.6l-0.9-0.7l0.7,0.8c0,0,2.1,2.4,3.5,4.7
				c1.7,2.8,1.6,5.6,1.2,7.5c-0.4,1.8-1.1,3.1-1.2,3.4l-1,0.1c0-0.6,0-3.5-0.5-6.4c-0.1-0.6-0.9-3.6-2.1-6.2c-1.2-2.4-2.8-4.5-3-4.8
				c0-0.2,0-0.8-0.4-2.1c-0.2-0.6-0.6-1.3-0.9-2.1c-0.5-1.1-1.1-2.4-1.7-4c-0.3-0.8-0.5-1.9-0.6-3.1c-0.3-2.4-0.7-5-2.2-6.4
				c-2.2-2.1-5.5-3.3-8.9-3.3c-1.5,0-3,0.2-4.4,0.7C30.7,23.4,30,28,29.3,32c-0.3,1.8-0.6,3.6-1,4.8c-0.7,2.1-1.4,3.8-2.3,5.2
				c-0.4,0.7-0.5,1.2-0.6,1.7c0,0.4-0.1,0.7-0.4,1.1c-1.6,1.9-2.1,3.2-2.8,4.8C22,50.1,21.7,51,21.2,52c-1.8,3.8-1.8,8-1.8,9.3
				c-0.4-0.7-1.2-2.7-0.8-7.3c0.4-4.1,3.9-8.3,3.9-8.3l0.7-0.8l-0.8,0.6c0,0-0.8,0.6-1.8,1.9c-0.9,1.2-2.1,3.1-2.8,5.9
				c-2,8,1.8,11.8,3.4,13.5c0.1,0.1,0.2,0.2,0.3,0.3c1.4,1.5,2.7,2.3,4.1,3.3c0.4,0.3,0.8,0.5,1.2,0.8c1.9,1.3,2.8,2.4,2.9,3.4
				c0.1,0.7-0.3,1.5-1,2.3c-0.8,0.8-2,1.2-3.7,1.2c-2.2,0-4.9-0.7-7.8-2.1c-2.7-1.3-3.9-5.1-4.5-8c-0.6-3.2-0.7-6.9-0.5-8.9
				c0.3-2.8,1.5-7.2,5.4-12.3c3.7-4.7,6.4-10.5,8.2-14.3c0.2-0.5,0.4-0.9,0.6-1.3c1.4-3,1.4-4.1,1.4-7.4c0-1,0-2.3,0-3.8
				c0-0.7,0-1.4,0-2.2c-0.1-4.1-0.3-9.8,3.8-14C34.1,1.4,37.2,0.1,40.6,0.1 M40.6,0c-3.2,0-6.4,1.1-9,3.6c-5,5-3.8,12.1-3.8,16.3
				c-0.1,6.6,0.5,7.3-1.3,11.2c-1.7,3.6-4.7,10.3-8.8,15.6c-3.7,4.8-5.1,9.1-5.4,12.4c-0.4,3.5-0.1,14.6,5,17
				c2.9,1.4,5.7,2.1,7.8,2.1c1.7,0,3-0.4,3.8-1.3c1.7-1.8,1.5-3.5-1.9-5.9c-2-1.4-3.6-2.3-5.4-4.1c-1.4-1.5-5.7-5.3-3.7-13.7
				c1.3-5.4,4.6-7.8,4.6-7.8s-3.6,4.2-4,8.4c-0.6,6.2,1,7.7,1,7.7s-0.5-5.1,1.8-9.7c1.5-3.1,1.5-4.5,3.9-7.3c0.6-0.7,0.1-1.5,1-2.7
				c0.8-1.3,1.6-2.9,2.3-5.2C29.6,33,30,23.8,32.6,23c1.4-0.5,2.9-0.7,4.4-0.7c3.2,0,6.5,1.1,8.8,3.2c2.2,2.1,2,7,2.8,9.5
				c0.9,2.7,2.1,4.6,2.6,6.1c0.5,1.5,0.4,2.1,0.4,2.1s1.8,2.2,3.1,4.8c1.3,2.6,2,5.6,2.1,6.2c0.5,3.2,0.5,6.5,0.5,6.5l1.2-0.1
				c0,0,3.4-5.6,0.1-11.1c-1.4-2.3-3.5-4.8-3.5-4.8s2.8,2.1,4.3,4.5c1.1,1.8,1.3,4,1.4,4.6c0.3,2.2-0.9,6.8-0.9,6.8s3.2,0,4.5,0.4
				c2.4,0.7,2.2,1.6,2.2,1.6s-1.6-1.2-5-1.2c-0.2,0-0.4,0-0.6,0c-3.8,0.2-5,0.9-5.5,2.1c-0.6,1.2-0.3,6.3,2.2,7.7
				c0.5,0.3,1.1,0.4,1.6,0.4c2.3,0,4.7-1.9,5.6-3c1-1.4,2.8-4.4,2.8-4.4l1.4,0.1c0,0,2.5-6.9-1.5-15.2S55.3,30.1,54.2,26.6
				c-0.4-1.2-0.7-3.5-0.6-6C53.8,18,54.7,8.8,50.2,4C47.8,1.4,44.2,0,40.6,0L40.6,0z"/>
		</g>
		<path class="st3" d="M34.8,19.2c0,2.4-1.4,4.2-3,4.2c-1.6,0-3-2.5-3-4.9s0.8-4.5,2.9-4.5C33.7,14,34.8,16.9,34.8,19.2z"/>
		<path class="st3" d="M47.7,18.9c-0.7,4.6-3,4.1-5.3,4.1s-3.8-1.5-3.4-4.9c0.3-2.3,2.4-5.3,5.3-4.8C47.2,13.7,48.1,16.3,47.7,18.9z
			"/>
		<g>
			<path class="st1" d="M31.8,22.2c-0.9,0-1.6-1.2-1.6-2.7c0-1.5,0.5-2.5,1.4-2.5c0.9,0,1.9,1.2,1.9,2.7
				C33.6,21.2,32.7,22.2,31.8,22.2z"/>
			<path d="M31.6,17.1c0.8,0,1.9,1.2,1.9,2.6c0,1.5-0.9,2.4-1.7,2.4c-0.8,0-1.5-1.2-1.5-2.6C30.3,18,30.8,17.1,31.6,17.1 M31.6,16.9
				c-0.9,0-1.4,1.1-1.4,2.6c0,1.5,0.7,2.8,1.6,2.8c0.9,0,1.8-1.1,1.8-2.6S32.5,16.9,31.6,16.9L31.6,16.9z"/>
		</g>
		<g>
			<path class="st1" d="M43.1,22.1c-0.2,0-0.3,0-0.5,0c-1.6-0.3-1.8-1.5-1.8-2.7c0-0.7,0.2-1.4,0.8-1.9c0.5-0.5,1-0.7,1.6-0.7
				c0.1,0,0.2,0,0.2,0c1.3,0.2,1.8,1.1,1.8,2.8C45.3,20.7,44.6,22.1,43.1,22.1z"/>
			<path d="M43.2,16.6v0.1c0.1,0,0.2,0,0.2,0c1.2,0.2,1.8,1,1.8,2.7c0,0.7-0.2,1.4-0.6,1.8c-0.4,0.5-0.9,0.8-1.5,0.8
				c-0.2,0-0.3,0-0.5,0c-1.5-0.3-1.7-1.4-1.8-2.6c0-0.7,0.2-1.4,0.7-1.9c0.5-0.5,1-0.7,1.6-0.7L43.2,16.6 M43.2,16.6
				c-1.2,0-2.5,1.2-2.4,2.8c0,1.1,0.2,2.4,1.8,2.8c0.2,0,0.3,0,0.5,0c1.4,0,2.2-1.2,2.2-2.7c0-1.6-0.5-2.6-1.9-2.9
				C43.3,16.6,43.3,16.6,43.2,16.6L43.2,16.6z"/>
		</g>
		<path class="st4" d="M45.8,25.6c0,0-4.6,4.3-9,4.3c-4.4,0-7.8-2.7-8-3.2c-0.3-0.5,0.3-3.9,4.5-5.4s5.8-1.1,8,0
			c2.2,1.1,4.1,1.6,5.5,2.2s1.1,3.1,0.6,3.6c-0.5,0.5-1.8,1.7-4.4,3.6c0,0-2.5,2.4-5,2.4c-2.5,0-3.9,0.1-5.7-1.8s-2.9-4-2.9-4"/>
		<path d="M35.4,21.6c0,0-0.8-0.1-1.2,0.2s0,0.5,0.2,0.5C34.6,22.2,35.2,21.6,35.4,21.6z"/>
		<path d="M37.5,21.6c0,0,0.9-0.1,1.2,0.2c0.4,0.4,0.1,0.5-0.1,0.5C38.3,22.2,38.4,21.8,37.5,21.6z"/>
		<g>
			<path class="st2" d="M24.1,93.1c-1.1,0-2.2-0.2-3.1-0.5c-0.5-0.2-1.1-0.4-1.6-0.6c-1.8-0.7-3.6-1.4-5.8-2
				c-2.9-0.8-6.5-1.6-8.9-2.1c-2.1-0.4-3.5-1.2-4.1-2.2c-0.5-0.8-0.5-1.8-0.1-3.1c0.6-1.9,1-3.7,0.5-8.5L1,74
				c-0.2-2.3-0.4-3.8,2.8-4.7c0.2-0.1,0.6-0.1,0.9-0.2c1.7-0.2,4.3-0.6,6.2-3.9c0.8-1.5,1.9-2.2,3.3-2.2c1.6,0,3.1,1.1,3.7,2.1
				c0.6,1,2.9,4.3,5.4,7.8c0.6,0.8,1.2,1.7,1.7,2.5c1.4,2.1,2.8,4,4,5.3c3,3.1,3.4,5.9,1.3,9.3C28.7,92.7,25.7,93.1,24.1,93.1
				L24.1,93.1z"/>
			<path d="M14.2,63.2c1.5,0,3,1,3.6,2c0.6,1,2.9,4.3,5.4,7.8c0.6,0.8,1.2,1.7,1.7,2.5c1.4,2.1,2.8,4.1,4.1,5.4c2.9,3,3.3,5.7,1.3,9
				c-1.6,2.6-4.5,3-6.1,3c-1.1,0-2.2-0.2-3-0.5c-0.5-0.2-1.1-0.4-1.6-0.6c-1.8-0.7-3.6-1.4-5.8-2c-2.9-0.8-6.5-1.6-8.9-2.1
				c-2-0.4-3.4-1.1-4-2.1c-0.5-0.8-0.5-1.7-0.1-2.9c0.6-2,1-3.7,0.5-8.5l0-0.1c-0.2-2.3-0.3-3.7,2.6-4.5c0.2-0.1,0.6-0.1,0.9-0.2
				c1.7-0.2,4.4-0.6,6.3-4C11.8,64,12.9,63.2,14.2,63.2 M14.2,62.9c-1.2,0-2.5,0.6-3.4,2.3c-2.2,4-5.5,3.6-7,4
				c-3.3,0.9-3.1,2.6-2.9,4.9c0.4,4.6,0.1,6.4-0.5,8.4C-0.3,84.6-0.2,87,4.7,88c2.6,0.5,6.1,1.3,8.9,2.1c2.8,0.8,5,1.7,7.3,2.6
				c0.8,0.3,1.9,0.5,3.1,0.5c2.3,0,5-0.8,6.4-3.2c2.2-3.5,1.6-6.4-1.3-9.5c-1.7-1.8-3.7-5-5.8-7.8C21,69.4,18.8,66.1,18,65
				C17.4,64,15.8,62.9,14.2,62.9L14.2,62.9z"/>
		</g>
	</g>
</g>
</svg>
