<?xml version="1.0" encoding="utf-8"?>
<!-- Generator: Adobe Illustrator 24.0.0, SVG Export Plug-In . SVG Version: 6.00 Build 0)  -->
<svg version="1.1" id="레이어_1" xmlns="http://www.w3.org/2000/svg" xmlns:xlink="http://www.w3.org/1999/xlink" x="0px"
	 y="0px" viewBox="0 0 96 94" style="enable-background:new 0 0 96 94;" xml:space="preserve">
<style type="text/css">
	.st0{fill:#007396;}
</style>
<g>
	<path class="st0" d="M43.3,76.7c0,0-9.8-5.3-16.5-18.6c0,0-2.7,2.9-2.2,11.7c0,0-8.7-2.1-10.7-13.7s2.7-18.6,2.7-18.6
		S10.7,30.3,9.1,23c-1-4.5-2-5.7-5.5-10.1S-1.2,4.9,0.9,1.8c0.9-1.2,5.9-5.2,18.5,4.6c0,0,12.6-1.6,25.7,11
		c9.1,8.8,13.4,14.8,16.8,23.4c3.6,9.3,7,17.2,8.9,17.9c2.4,0.9,19.3,7.3,23.3,16.5c0,0-6.3,0-14.3,2.8
		c-2.4,0.8,15.3,12.1,16.4,16.3c0,0-4.6-4.3-11.3-7c-1.8-0.7-11.5-7.5-11.3-10.5c0.2-2.5,15.4-3.6,15.4-3.6s-1.8-3.4-8.3-6.7
		c-3-1.5-7.2-2.8-12.8-5.3c-2.9-1.3-5.1-8.4-8.4-15.8c-4-9-9.4-17.5-12.2-20.4c-2.2-2.4-5.2-6-11.1-9.7c-1.5-0.9-5.5-3.1-10.1-4.9
		C22.4,9,18.9,9.7,17,9.1c-2-0.6-3.7-2.6-6-3.9C8,3.4,4.6,2.5,3,3.9c-1.9,1.8,3.5,6.7,7.2,13.7c1.8,3.5,3.2,9.8,5.2,13.5
		c0.8,1.5,3.9,4.9,3.9,4.9s-3.7,10.2-3.1,15.6c1.1,11.6,4.5,12.6,5.5,14c1.3,1.9,0.2-2.5,1.3-6.6c1.2-4.5,4.4-8.8,4.4-8.8
		s2.9,8,5.7,12.8C35.6,67.7,43.3,76.7,43.3,76.7z"/>
	<path class="st0" d="M19.1,16.5c0,0,3.6,3.4,3.8,5.4c0,0,1.9-1.4,1-3.8C23,15.4,19.1,16.5,19.1,16.5z"/>
</g>
</svg>
