<?xml version="1.0" encoding="utf-8"?>
<!-- Generator: Adobe Illustrator 24.0.0, SVG Export Plug-In . SVG Version: 6.00 Build 0)  -->
<svg version="1.1" id="레이어_1" xmlns="http://www.w3.org/2000/svg" xmlns:xlink="http://www.w3.org/1999/xlink" x="0px"
	 y="0px" viewBox="0 0 95 94" style="enable-background:new 0 0 95 94;" xml:space="preserve">
<style type="text/css">
	.st0{fill:#3178C6;}
	.st1{fill:#FFFFFF;}
</style>
<g>
	<path class="st0" d="M85.2,94H9.8c-5.1,0-9.3-4.2-9.3-9.3V9.3C0.5,4.2,4.7,0,9.8,0h75.4c5.1,0,9.3,4.2,9.3,9.3v75.4
		C94.5,89.8,90.3,94,85.2,94z"/>
	<polygon class="st1" points="22.2,44.5 22.2,52.1 33.9,52.1 33.9,85.7 43.3,85.7 43.3,52.1 55,52.1 55,44.5 	"/>
	<path class="st1" d="M84.9,45.2v8.5c0,0-7.9-4.5-14-1.9c-0.8,0.3-2.7,1.4-2.6,2.9c0,1.8,1.2,3.8,4.5,5.2c3.4,1.5,5.6,2.6,9.1,4.6
		c5,2.9,6.5,10.6,3.4,15.6c-3.3,5.2-8.7,6.2-15.5,6.2c-5.3,0-10.2-1.5-11.2-2.5v-9.1c0,0,4.2,3.7,9.7,4c2.1,0.1,7,0.5,8.4-2.6
		c1.4-3.2-2.2-5.5-4.8-6.7c-2.8-1.3-5.5-2.1-7.4-3.4c-4.4-2.9-6.6-7-6.1-11c0.9-7.1,6.3-10.1,9.7-10.9
		C71.9,43.5,76.3,42.7,84.9,45.2z"/>
</g>
</svg>
